# xmcd
#
# Track frame offsets:
#	150
#	18254
#	43539
#	59944
#	79838
#	97015
#	122145
#	143851
#	162137
#	177669
#
# Disc length: 2575 seconds
# Revision: 0
# Processed by: cddbd v1.5.2PL0 Copyright (c) Steve Scherf et al.
# Submitted via: dBpowerAMP V12.0
#
DISCID=8c0a0d0a
DTITLE=Sara Evans - Country
DYEAR=2014
DGENRE=Country
TTITLE0=A Real Fine Place To Start
TTITLE1=Born To Fly
TTITLE2=No Place That Far
TTITLE3=Saints and Angles
TTITLE4=Suds In The Bucket
TTITLE5=Backseat Of A Greyhound Bus
TTITLE6=I Could Not Ask For More
TTITLE7=Perfect
TTITLE8=Cheatin'
TTITLE9=Coalmine
EXTD=
EXTT0=
EXTT1=
EXTT2=
EXTT3=
EXTT4=
EXTT5=
EXTT6=
EXTT7=
EXTT8=
EXTT9=
PLAYORDER=
